<svg xmlns="http://www.w3.org/2000/svg" width="900" height="620" viewBox="0 0 900 620"><defs><linearGradient id="g" x1="0" x2="1" y1="0" y2="1"><stop stop-color="#ddd2c2"/><stop offset="1" stop-color="#f5efe6"/></linearGradient><linearGradient id="m" x1="0" y1="0" x2="0" y2="1"><stop stop-color="#6f7d78"/><stop offset="1" stop-color="#2e2a24"/></linearGradient></defs><rect width="900" height="620" fill="url(#g)"/><path d="M0 440 175 270l92 88 138-170 151 206 94-111 250 218v119H0z" fill="url(#m)" opacity=".75"/><circle cx="710" cy="130" r="64" fill="#fff7e6" opacity=".55"/><rect x="365" y="325" width="170" height="110" rx="30" fill="#1e1713" opacity=".92"/><ellipse cx="450" cy="325" rx="86" ry="25" fill="#33231b"/><path d="M415 314c12-38 52-56 82-19 18 22 33 31 48 23-5 26-24 49-65 55-50 8-82-19-65-59z" fill="#090706"/><text x="450" y="528" text-anchor="middle" font-family="Georgia,serif" font-size="42" fill="#3a2a1e">AMALEY</text></svg>