<svg xmlns="http://www.w3.org/2000/svg" width="1400" height="760" viewBox="0 0 1400 760"><defs><linearGradient id="bg" x1="0" x2="1" y1="0" y2="1"><stop stop-color="#11100e"/><stop offset="1" stop-color="#48392e"/></linearGradient><radialGradient id="r" cx="72%" cy="30%" r="55%"><stop stop-color="#8d7657" stop-opacity=".65"/><stop offset="1" stop-color="#000" stop-opacity="0"/></radialGradient></defs><rect width="1400" height="760" fill="url(#bg)"/><rect width="1400" height="760" fill="url(#r)"/><path d="M0 575 280 300l128 110 172-230 248 320 136-154 436 322v92H0z" fill="#0b0a09" opacity=".72"/><rect x="825" y="342" width="205" height="130" rx="34" fill="#090605"/><ellipse cx="928" cy="341" rx="103" ry="30" fill="#312016"/><path d="M877 328c25-63 88-73 126-15 13 20 28 30 52 28-9 33-49 67-98 73-62 8-101-24-80-86z" fill="#050403"/><text x="86" y="118" font-family="Georgia,serif" font-size="56" fill="#f8efe5">Amaley Journal</text></svg>